name C:\Users\u0101727\Documents\MyRepositories\upper-imu-dc\Results\main_tracking\Case_22\SHRUG01_angularVelocities_bodyFrame.mot
datacolumns 4
datarows 105
range 0.71000000 1.75000000
endheader 
time	radius_imu_x	radius_imu_y	radius_imu_z	
          0.71000000	          0.01427441	          0.68923260	          0.12915187	
          0.72000000	         -0.08862034	          0.68703814	          0.01048853	
          0.73000000	         -0.15723879	          0.68789313	         -0.06911510	
          0.74000000	         -0.20082224	          0.67171663	         -0.12160219	
          0.75000000	         -0.22672444	          0.61854821	         -0.15606696	
          0.76000000	         -0.24113137	          0.50992398	         -0.17888882	
          0.77000000	         -0.24956028	          0.33185823	         -0.19421940	
          0.78000000	         -0.25672583	          0.07386696	         -0.20426043	
          0.79000000	         -0.26565612	         -0.27279409	         -0.20954387	
          0.80000000	         -0.27607098	         -0.71184129	         -0.20955696	
          0.81000000	         -0.28240137	         -1.22928319	         -0.20390102	
          0.82000000	         -0.26972610	         -1.75487746	         -0.19556348	
          0.83000000	         -0.21458535	         -2.12761589	         -0.19360468	
          0.84000000	         -0.06552134	         -1.80237004	         -0.24311374	
          0.85000000	          0.16955580	         -0.47848084	         -0.34616832	
          0.86000000	          0.37102821	          0.58589350	         -0.38719224	
          0.87000000	          0.42721460	          0.60323707	         -0.38165673	
          0.88000000	          0.32100820	         -0.05554729	         -0.31728925	
          0.89000000	          0.13371221	         -0.92080598	         -0.23324286	
          0.90000000	         -0.05476145	         -1.64702921	         -0.15250582	
          0.91000000	         -0.14333055	         -1.57271530	         -0.12707639	
          0.92000000	         -0.12947413	         -0.55093227	         -0.16646909	
          0.93000000	         -0.15483353	         -0.01584580	         -0.17919995	
          0.94000000	         -0.24213102	         -0.19675846	         -0.12956165	
          0.95000000	         -0.29988433	         -0.12518999	         -0.10358369	
          0.96000000	         -0.32784310	         -0.03656385	         -0.08056792	
          0.97000000	         -0.31867758	          0.10087198	         -0.06808267	
          0.98000000	         -0.26629025	          0.48012032	         -0.07645790	
          0.99000000	         -0.16164933	          1.25302021	         -0.13225519	
          1.00000000	         -0.05287629	          1.96169977	         -0.18714784	
          1.01000000	         -0.01484878	          2.05088457	         -0.21051253	
          1.02000000	         -0.04680113	          1.73381487	         -0.20956551	
          1.03000000	         -0.12046325	          1.25591652	         -0.20001239	
          1.04000000	         -0.22163629	          0.70379530	         -0.18301448	
          1.05000000	         -0.33846783	          0.12617238	         -0.15743387	
          1.06000000	         -0.45846687	         -0.43554502	         -0.12218372	
          1.07000000	         -0.56294684	         -0.90638900	         -0.07958508	
          1.08000000	         -0.62157275	         -1.13774631	         -0.03893008	
          1.09000000	         -0.59093974	         -0.84152207	         -0.02226612	
          1.10000000	         -0.48503709	          0.36037977	          0.00122157	
          1.11000000	         -0.20173621	          1.67079409	         -0.08789988	
          1.12000000	         -0.12524348	          2.11209045	         -0.08398959	
          1.13000000	         -0.14787097	          1.97941719	         -0.04738601	
          1.14000000	         -0.21311088	          1.60387923	         -0.01024216	
          1.15000000	         -0.28775090	          1.15333188	          0.01498927	
          1.16000000	         -0.35309364	          0.72317011	          0.02396316	
          1.17000000	         -0.40245446	          0.36032148	          0.01770144	
          1.18000000	         -0.43614855	          0.08572575	         -0.00023893	
          1.19000000	         -0.45799140	         -0.09495326	         -0.02537396	
          1.20000000	         -0.47273045	         -0.18536637	         -0.05333794	
          1.21000000	         -0.48444188	         -0.19549878	         -0.08049810	
          1.22000000	         -0.49569442	         -0.13987261	         -0.10427742	
          1.23000000	         -0.50733120	         -0.03596361	         -0.12324351	
          1.24000000	         -0.51869305	          0.09741956	         -0.13701076	
          1.25000000	         -0.52808291	          0.24156242	         -0.14601811	
          1.26000000	         -0.53327032	          0.37883149	         -0.15125797	
          1.27000000	         -0.53189131	          0.49323666	         -0.15401981	
          1.28000000	         -0.52171243	          0.57086990	         -0.15568046	
          1.29000000	         -0.50083094	          0.60067224	         -0.15754684	
          1.30000000	         -0.46790640	          0.57583418	         -0.16074904	
          1.31000000	         -0.42244923	          0.49552655	         -0.16617992	
          1.32000000	         -0.36508399	          0.36604195	         -0.17447644	
          1.33000000	         -0.29765142	          0.20053245	         -0.18604177	
          1.34000000	         -0.22305359	          0.01716065	         -0.20109282	
          1.35000000	         -0.14485618	         -0.16391783	         -0.21968564	
          1.36000000	         -0.06677707	         -0.32387974	         -0.24167227	
          1.37000000	          0.00777871	         -0.44798912	         -0.26658931	
          1.38000000	          0.07603984	         -0.52736067	         -0.29352720	
          1.39000000	          0.13601599	         -0.55972033	         -0.32105238	
          1.40000000	          0.18649742	         -0.54923555	         -0.34725557	
          1.41000000	          0.22697136	         -0.50545665	         -0.36995767	
          1.42000000	          0.25748282	         -0.44143459	         -0.38701464	
          1.43000000	          0.27843143	         -0.37126756	         -0.39660256	
          1.44000000	          0.29041691	         -0.30721252	         -0.39746284	
          1.45000000	          0.29410056	         -0.25768665	         -0.38903786	
          1.46000000	          0.29040466	         -0.22538370	         -0.37168966	
          1.47000000	          0.28050375	         -0.20830658	         -0.34654800	
          1.48000000	          0.26596935	         -0.20086621	         -0.31571954	
          1.49000000	          0.24856175	         -0.19862172	         -0.28154476	
          1.50000000	          0.22887332	         -0.20601082	         -0.24750215	
          1.51000000	          0.20846540	         -0.22008078	         -0.21615543	
          1.52000000	          0.18975328	         -0.23339378	         -0.18751890	
          1.53000000	          0.17404925	         -0.24796836	         -0.15988317	
          1.54000000	          0.16281552	         -0.27144176	         -0.13796166	
          1.55000000	          0.15541300	         -0.31376107	         -0.12471237	
          1.56000000	          0.15124707	         -0.37239824	         -0.11666244	
          1.57000000	          0.15030538	         -0.44029805	         -0.11282471	
          1.58000000	          0.15152998	         -0.50955043	         -0.11272892	
          1.59000000	          0.15316466	         -0.56993906	         -0.11532164	
          1.60000000	          0.15335421	         -0.61052224	         -0.11929126	
          1.61000000	          0.15056318	         -0.62366886	         -0.12338035	
          1.62000000	          0.14400163	         -0.60787332	         -0.12671278	
          1.63000000	          0.13385687	         -0.56850886	         -0.12893870	
          1.64000000	          0.12114648	         -0.51569461	         -0.12985586	
          1.65000000	          0.10818206	         -0.45527661	         -0.12876855	
          1.66000000	          0.09410926	         -0.39953143	         -0.11931022	
          1.67000000	          0.08064605	         -0.35709929	         -0.10593694	
          1.68000000	          0.06966070	         -0.33188358	         -0.09128559	
          1.69000000	          0.06051559	         -0.33895879	         -0.07705152	
          1.70000000	          0.05582514	         -0.35585942	         -0.06670362	
          1.71000000	          0.05649610	         -0.35483424	         -0.05782303	
          1.72000000	          0.05855526	         -0.33796014	         -0.04676569	
          1.73000000	          0.06114901	         -0.29593927	         -0.03219929	
          1.74000000	          0.06221725	         -0.23040168	         -0.01348464	
          1.75000000	          0.06062531	         -0.14496515	          0.01045013	
